<svg xmlns="http://www.w3.org/2000/svg" width="297mm" height="210mm" viewBox="0 0 2970 2100" font-family="Helvetica Neue, Helvetica, Arial, sans-serif">
<rect width="2970" height="2100" fill="#FFFFFF"/>
<defs><marker id="arr-main" viewBox="0 0 10 10" refX="8.5" refY="5" markerWidth="6.5" markerHeight="6.5" orient="auto-start-reverse"><path d="M0 0 L10 5 L0 10 z" fill="#5B6478"/></marker><pattern id="hatch-A" width="7" height="7" patternUnits="userSpaceOnUse" patternTransform="rotate(45)"><line x1="0" y1="0" x2="0" y2="7" stroke="#C8413A" stroke-width="2.6"/></pattern><marker id="arr-A" viewBox="0 0 10 10" refX="9" refY="5" markerWidth="7" markerHeight="7" orient="auto-start-reverse"><path d="M0 0 L10 5 L0 10 z" fill="#9AA3B5"/></marker><pattern id="hatch-B" width="7" height="7" patternUnits="userSpaceOnUse" patternTransform="rotate(45)"><line x1="0" y1="0" x2="0" y2="7" stroke="#3264AE" stroke-width="2.6"/></pattern><marker id="arr-B" viewBox="0 0 10 10" refX="9" refY="5" markerWidth="7" markerHeight="7" orient="auto-start-reverse"><path d="M0 0 L10 5 L0 10 z" fill="#9AA3B5"/></marker><pattern id="hatch-C" width="7" height="7" patternUnits="userSpaceOnUse" patternTransform="rotate(45)"><line x1="0" y1="0" x2="0" y2="7" stroke="#7652AE" stroke-width="2.6"/></pattern><marker id="arr-C" viewBox="0 0 10 10" refX="9" refY="5" markerWidth="7" markerHeight="7" orient="auto-start-reverse"><path d="M0 0 L10 5 L0 10 z" fill="#9AA3B5"/></marker></defs>
<g transform="translate(80.0,94.5) scale(1.1708)">
<rect x="1060.0" y="0.0" width="750.0" height="215.0" rx="16" fill="#FFFFFF" stroke="#AEB8C8" stroke-width="2.4"/>
<text x="1435.0" y="36.0" font-size="26.5" font-weight="700" fill="#1F2A44" text-anchor="middle">Patient situational graph</text>
<rect x="1084.0" y="56.0" width="448.0" height="118.0" rx="8" fill="#F7F9FC" stroke="#DCE2EC" stroke-width="1.6"/>
<polyline points="1128.8,133.9 1205.0,96.1 1272.2,142.1 1352.8,85.5 1424.5,126.8 1487.2,99.7" fill="none" stroke="#9AA3B5" stroke-width="2.4"/>
<path d="M1205.0 96.1 L1352.8 85.5 M1272.2 142.1 L1424.5 126.8" stroke="#9AA3B5" stroke-width="1.8" stroke-dasharray="4 4" fill="none"/>
<circle cx="1128.8" cy="133.9" r="8" fill="#1F2A44"/>
<circle cx="1205.0" cy="96.1" r="8" fill="#3264AE"/>
<circle cx="1272.2" cy="142.1" r="8" fill="#D2463E"/>
<circle cx="1352.8" cy="85.5" r="8" fill="#1F2A44"/>
<circle cx="1424.5" cy="126.8" r="8" fill="#3E8E5A"/>
<circle cx="1487.2" cy="99.7" r="8" fill="#7652AE"/>
<path d="M1100.0 160.0 L1516.0 160.0" fill="none" stroke="#5B6478" stroke-width="2" stroke-linejoin="round" marker-end="url(#arr-main)"/>
<text x="1100.0" y="196.0" font-size="19.4" font-weight="400" fill="#5B6478" text-anchor="start">time</text>
<text x="1556.0" y="90.0" font-size="19.4" font-weight="400" fill="#1F2A44" text-anchor="start">Structural facts</text>
<text x="1556.0" y="111.7" font-size="19.4" font-weight="400" fill="#1F2A44" text-anchor="start">persist <tspan font-weight="700">15 min</tspan></text>
<text x="1556.0" y="148.0" font-size="19.4" font-weight="400" fill="#1F2A44" text-anchor="start">Interpretive facts persist</text>
<text x="1556.0" y="169.7" font-size="19.4" font-weight="400" fill="#1F2A44" text-anchor="start">for alarm duration</text>
<rect x="0.0" y="250.0" width="380.0" height="455.0" rx="16" fill="#FFFFFF" stroke="#AEB8C8" stroke-width="2.4"/>
<circle cx="32" cy="284" r="19" fill="#1F2A44"/>
<text x="32.0" y="292.0" font-size="23" font-weight="700" fill="#FFFFFF" text-anchor="middle">1</text>
<text x="60.0" y="293.0" font-size="26.5" font-weight="700" fill="#1F2A44" text-anchor="start">Alarm stream</text>
<text x="60.0" y="322.1" font-size="19.4" font-weight="400" fill="#5B6478" text-anchor="start">Per patient, real-world data</text>
<rect x="22.0" y="368.0" width="150.0" height="96.0" rx="8" fill="#F7F9FC" stroke="#1F2A44" stroke-width="3"/>
<polyline points="33.4,420.0 67.5,420.0 78.8,402.0 90.2,440.0 103.8,388.0 115.2,426.0 124.3,420.0 160.6,420.0" fill="none" stroke="#3E8E5A" stroke-width="3.2" stroke-linejoin="round"/>
<path d="M97 464 v14 M72 480 h50" stroke="#1F2A44" stroke-width="3.2" stroke-linecap="round"/>
<line x1="210" y1="384" x2="232" y2="384" stroke="#9AA3B5" stroke-width="2.4"/>
<text x="242" y="390" font-size="21.2" fill="#1F2A44">Alarm<tspan font-size="14" dy="5">1</tspan></text>
<line x1="210" y1="414" x2="232" y2="414" stroke="#9AA3B5" stroke-width="2.4"/>
<text x="242" y="420" font-size="21.2" fill="#1F2A44">Alarm<tspan font-size="14" dy="5">2</tspan></text>
<line x1="210" y1="444" x2="232" y2="444" stroke="#9AA3B5" stroke-width="2.4"/>
<text x="242" y="450" font-size="21.2" fill="#1F2A44">Alarm<tspan font-size="14" dy="5">3</tspan></text>
<text x="242.0" y="482.0" font-size="21.2" font-weight="700" fill="#1F2A44" text-anchor="start">…</text>
<circle cx="26" cy="534" r="3.5" fill="#1F2A44"/>
<text x="40.0" y="540.0" font-size="19.4" font-weight="400" fill="#1F2A44" text-anchor="start">Multi-manufacturer</text>
<circle cx="26" cy="572" r="3.5" fill="#1F2A44"/>
<text x="40.0" y="578.0" font-size="19.4" font-weight="400" fill="#1F2A44" text-anchor="start">Time-stamped, in sequence</text>
<circle cx="26" cy="610" r="3.5" fill="#1F2A44"/>
<text x="40.0" y="616.0" font-size="19.4" font-weight="400" fill="#1F2A44" text-anchor="start">Clinical context</text>
<text x="40.0" y="637.7" font-size="19.4" font-weight="400" fill="#1F2A44" text-anchor="start">(vitals, devices, …)</text>
<rect x="470.0" y="250.0" width="420.0" height="455.0" rx="16" fill="#F1F7F2" stroke="#9CCAA9" stroke-width="2.4"/>
<circle cx="502" cy="284" r="19" fill="#3E8E5A"/>
<text x="502.0" y="292.0" font-size="23" font-weight="700" fill="#FFFFFF" text-anchor="middle">2</text>
<text x="530.0" y="293.0" font-size="26.5" font-weight="700" fill="#1F2A44" text-anchor="start">MDA semantic framework</text>
<text x="530.0" y="322.1" font-size="19.4" font-weight="400" fill="#5B6478" text-anchor="start">Explicit, machine-interpretable</text>
<text x="530.0" y="343.9" font-size="19.4" font-weight="400" fill="#5B6478" text-anchor="start">alarm knowledge</text>
<rect x="486.0" y="377.6" width="388.0" height="311.4" rx="10" fill="#FFFFFF" stroke="#3E8E5A" stroke-width="2" stroke-dasharray="7 5"/>
<g stroke="#1F2A44" stroke-width="3" fill="#FFFFFF"><line x1="510" y1="437.505" x2="520" y2="415.505"/><line x1="520" y1="415.505" x2="532" y2="437.505"/><circle cx="520" cy="415.505" r="7"/><circle cx="508" cy="439.505" r="7"/><circle cx="533" cy="439.505" r="7"/></g>
<text x="552.0" y="423.5" font-size="21.2" font-weight="700" fill="#1F2A44" text-anchor="start">OWL ontology</text>
<text x="552.0" y="447.5" font-size="19.4" font-weight="400" fill="#5B6478" text-anchor="start">(20 classes, 35 properties)</text>
<g fill="#1F2A44"><path d="M505.0 516.303 v30 a15.0 6 0 0 0 30 0 v-30 z"/><ellipse cx="520" cy="516.303" rx="15.0" ry="6" fill="#FFFFFF" stroke="#1F2A44" stroke-width="3"/><path d="M505.0 527.303 a15.0 6 0 0 0 30 0 M505.0 539.303 a15.0 6 0 0 0 30 0" fill="none" stroke="#FFFFFF" stroke-width="2"/></g>
<text x="552.0" y="527.3" font-size="21.2" font-weight="700" fill="#1F2A44" text-anchor="start">SKOS vocabulary</text>
<text x="552.0" y="551.3" font-size="19.4" font-weight="400" fill="#5B6478" text-anchor="start">(275 concepts)</text>
<g stroke="#1F2A44" stroke-width="3" fill="#FFFFFF"><path d="M508 618.101 h16 l8 8 v26 h-24 z"/><path d="M514 633.101 h12 M514 641.101 h12" stroke-width="2.4"/></g>
<text x="552.0" y="631.1" font-size="21.2" font-weight="700" fill="#1F2A44" text-anchor="start">Knowledge base</text>
<text x="552.0" y="655.1" font-size="19.4" font-weight="400" fill="#5B6478" text-anchor="start">(92 alarms, 78% coverage)</text>
<rect x="1060.0" y="270.0" width="360.0" height="435.0" rx="16" fill="#FFFFFF" stroke="#AEB8C8" stroke-width="2.4"/>
<circle cx="1092" cy="304" r="19" fill="#1F2A44"/>
<text x="1092.0" y="312.0" font-size="23" font-weight="700" fill="#FFFFFF" text-anchor="middle">3</text>
<text x="1120.0" y="313.0" font-size="26.5" font-weight="700" fill="#1F2A44" text-anchor="start">Context-aware</text>
<text x="1120.0" y="342.7" font-size="26.5" font-weight="700" fill="#1F2A44" text-anchor="start">reasoning</text>
<text x="1120.0" y="371.3" font-size="19.4" font-weight="400" fill="#5B6478" text-anchor="start">Continuous SPARQL application</text>
<rect x="1076.0" y="405.0" width="328.0" height="284.0" rx="10" fill="#F4F6FA" stroke="#DCE2EC" stroke-width="1.6"/>
<circle cx="1096" cy="452.3566666666667" r="3.5" fill="#1F2A44"/>
<text x="1110.0" y="458.4" font-size="19.4" font-weight="400" fill="#1F2A44" text-anchor="start">Alarm knowledge (MDA)</text>
<circle cx="1096" cy="547.014" r="3.5" fill="#1F2A44"/>
<text x="1110.0" y="553.0" font-size="19.4" font-weight="400" fill="#1F2A44" text-anchor="start">Clinical context</text>
<circle cx="1096" cy="641.6713333333333" r="3.5" fill="#1F2A44"/>
<text x="1110.0" y="647.7" font-size="19.4" font-weight="400" fill="#1F2A44" text-anchor="start">Temporal, multi-alarm reasoning</text>
<rect x="1480.0" y="270.0" width="330.0" height="435.0" rx="16" fill="#FFFFFF" stroke="#AEB8C8" stroke-width="2.4"/>
<circle cx="1512" cy="304" r="19" fill="#1F2A44"/>
<text x="1512.0" y="312.0" font-size="23" font-weight="700" fill="#FFFFFF" text-anchor="middle">4</text>
<text x="1540.0" y="313.0" font-size="26.5" font-weight="700" fill="#1F2A44" text-anchor="start">Update situational</text>
<text x="1540.0" y="342.7" font-size="26.5" font-weight="700" fill="#1F2A44" text-anchor="start">awareness</text>
<text x="1540.0" y="371.3" font-size="19.4" font-weight="400" fill="#5B6478" text-anchor="start">Merge rule outcomes into</text>
<text x="1540.0" y="393.0" font-size="19.4" font-weight="400" fill="#5B6478" text-anchor="start">persistent graph</text>
<g fill="#1F2A44"><path d="M1623.0 436.75600000000003 v44 a22.0 6 0 0 0 44 0 v-44 z"/><ellipse cx="1645.0" cy="436.75600000000003" rx="22.0" ry="6" fill="#FFFFFF" stroke="#1F2A44" stroke-width="3"/><path d="M1623.0 454.75600000000003 a22.0 6 0 0 0 44 0 M1623.0 466.75600000000003 a22.0 6 0 0 0 44 0" fill="none" stroke="#FFFFFF" stroke-width="2"/></g>
<text x="1645.0" y="518.8" font-size="19.4" font-weight="700" fill="#1F2A44" text-anchor="middle">Patient-centered</text>
<text x="1645.0" y="540.5" font-size="19.4" font-weight="700" fill="#1F2A44" text-anchor="middle">situational knowledge</text>
<text x="1645.0" y="564.8" font-size="19.4" font-weight="400" fill="#5B6478" text-anchor="middle">(accumulates over time)</text>
<rect x="1880.0" y="0.0" width="520.0" height="705.0" rx="16" fill="#F2F6FC" stroke="#B9C8DE" stroke-width="2.4"/>
<circle cx="1912" cy="34" r="19" fill="#1F2A44"/>
<text x="1912.0" y="42.0" font-size="23" font-weight="700" fill="#FFFFFF" text-anchor="middle">5</text>
<text x="1940.0" y="43.0" font-size="26.5" font-weight="700" fill="#1F2A44" text-anchor="start">Clinician view</text>
<text x="1940.0" y="72.2" font-size="19.4" font-weight="400" fill="#5B6478" text-anchor="start">From alarm stream to actionable information</text>
<rect x="1896.0" y="105.9" width="488.0" height="286.6" rx="10" fill="#FFFFFF" stroke="#B9C8DE" stroke-width="1.8"/>
<text x="1912.0" y="139.9" font-size="21.2" font-weight="700" fill="#1F2A44" text-anchor="start">Device-centered alarm management</text>
<g transform="translate(1942,253.1585) scale(1.0)" fill="none" stroke="#1F2A44" stroke-width="3.2"><circle cx="0" cy="-14" r="10"/><path d="M-20 24 C-20 6 -10 0 0 0 C10 0 20 6 20 24"/><path d="M-6 10 h12 M0 4 v12" stroke-width="2.6"/></g>
<path d="M-10 7 L-10 -1 C-10 -9 -5 -13 0 -13 C5 -13 10 -9 10 -1 L10 7 L13 10 L-13 10 Z M-3.5 13 A3.5 3.5 0 0 0 3.5 13 Z" transform="translate(2000.0,235.2) scale(1.05)" fill="#D2463E" opacity="1.0"/>
<path d="M-10 7 L-10 -1 C-10 -9 -5 -13 0 -13 C5 -13 10 -9 10 -1 L10 7 L13 10 L-13 10 Z M-3.5 13 A3.5 3.5 0 0 0 3.5 13 Z" transform="translate(2038.0,235.2) scale(1.05)" fill="#D2463E" opacity="1.0"/>
<path d="M-10 7 L-10 -1 C-10 -9 -5 -13 0 -13 C5 -13 10 -9 10 -1 L10 7 L13 10 L-13 10 Z M-3.5 13 A3.5 3.5 0 0 0 3.5 13 Z" transform="translate(2076.0,235.2) scale(1.05)" fill="#D2463E" opacity="1.0"/>
<path d="M-10 7 L-10 -1 C-10 -9 -5 -13 0 -13 C5 -13 10 -9 10 -1 L10 7 L13 10 L-13 10 Z M-3.5 13 A3.5 3.5 0 0 0 3.5 13 Z" transform="translate(2114.0,235.2) scale(1.05)" fill="#D2463E" opacity="1.0"/>
<path d="M-10 7 L-10 -1 C-10 -9 -5 -13 0 -13 C5 -13 10 -9 10 -1 L10 7 L13 10 L-13 10 Z M-3.5 13 A3.5 3.5 0 0 0 3.5 13 Z" transform="translate(2152.0,235.2) scale(1.05)" fill="#D2463E" opacity="1.0"/>
<path d="M-10 7 L-10 -1 C-10 -9 -5 -13 0 -13 C5 -13 10 -9 10 -1 L10 7 L13 10 L-13 10 Z M-3.5 13 A3.5 3.5 0 0 0 3.5 13 Z" transform="translate(2190.0,235.2) scale(1.05)" fill="#D2463E" opacity="1.0"/>
<path d="M-10 7 L-10 -1 C-10 -9 -5 -13 0 -13 C5 -13 10 -9 10 -1 L10 7 L13 10 L-13 10 Z M-3.5 13 A3.5 3.5 0 0 0 3.5 13 Z" transform="translate(2228.0,235.2) scale(1.05)" fill="#D2463E" opacity="1.0"/>
<path d="M-10 7 L-10 -1 C-10 -9 -5 -13 0 -13 C5 -13 10 -9 10 -1 L10 7 L13 10 L-13 10 Z M-3.5 13 A3.5 3.5 0 0 0 3.5 13 Z" transform="translate(2266.0,235.2) scale(1.05)" fill="#D2463E" opacity="1.0"/>
<path d="M-10 7 L-10 -1 C-10 -9 -5 -13 0 -13 C5 -13 10 -9 10 -1 L10 7 L13 10 L-13 10 Z M-3.5 13 A3.5 3.5 0 0 0 3.5 13 Z" transform="translate(2304.0,235.2) scale(1.05)" fill="#D2463E" opacity="1.0"/>
<path d="M-10 7 L-10 -1 C-10 -9 -5 -13 0 -13 C5 -13 10 -9 10 -1 L10 7 L13 10 L-13 10 Z M-3.5 13 A3.5 3.5 0 0 0 3.5 13 Z" transform="translate(2000.0,273.2) scale(1.05)" fill="#D2463E" opacity="1.0"/>
<path d="M-10 7 L-10 -1 C-10 -9 -5 -13 0 -13 C5 -13 10 -9 10 -1 L10 7 L13 10 L-13 10 Z M-3.5 13 A3.5 3.5 0 0 0 3.5 13 Z" transform="translate(2038.0,273.2) scale(1.05)" fill="#D2463E" opacity="1.0"/>
<path d="M-10 7 L-10 -1 C-10 -9 -5 -13 0 -13 C5 -13 10 -9 10 -1 L10 7 L13 10 L-13 10 Z M-3.5 13 A3.5 3.5 0 0 0 3.5 13 Z" transform="translate(2076.0,273.2) scale(1.05)" fill="#D2463E" opacity="1.0"/>
<path d="M-10 7 L-10 -1 C-10 -9 -5 -13 0 -13 C5 -13 10 -9 10 -1 L10 7 L13 10 L-13 10 Z M-3.5 13 A3.5 3.5 0 0 0 3.5 13 Z" transform="translate(2114.0,273.2) scale(1.05)" fill="#D2463E" opacity="1.0"/>
<path d="M-10 7 L-10 -1 C-10 -9 -5 -13 0 -13 C5 -13 10 -9 10 -1 L10 7 L13 10 L-13 10 Z M-3.5 13 A3.5 3.5 0 0 0 3.5 13 Z" transform="translate(2152.0,273.2) scale(1.05)" fill="#D2463E" opacity="1.0"/>
<path d="M-10 7 L-10 -1 C-10 -9 -5 -13 0 -13 C5 -13 10 -9 10 -1 L10 7 L13 10 L-13 10 Z M-3.5 13 A3.5 3.5 0 0 0 3.5 13 Z" transform="translate(2190.0,273.2) scale(1.05)" fill="#D2463E" opacity="1.0"/>
<path d="M-10 7 L-10 -1 C-10 -9 -5 -13 0 -13 C5 -13 10 -9 10 -1 L10 7 L13 10 L-13 10 Z M-3.5 13 A3.5 3.5 0 0 0 3.5 13 Z" transform="translate(2228.0,273.2) scale(1.05)" fill="#D2463E" opacity="1.0"/>
<path d="M-10 7 L-10 -1 C-10 -9 -5 -13 0 -13 C5 -13 10 -9 10 -1 L10 7 L13 10 L-13 10 Z M-3.5 13 A3.5 3.5 0 0 0 3.5 13 Z" transform="translate(2266.0,273.2) scale(1.05)" fill="#D2463E" opacity="1.0"/>
<path d="M-10 7 L-10 -1 C-10 -9 -5 -13 0 -13 C5 -13 10 -9 10 -1 L10 7 L13 10 L-13 10 Z M-3.5 13 A3.5 3.5 0 0 0 3.5 13 Z" transform="translate(2304.0,273.2) scale(1.05)" fill="#D2463E" opacity="1.0"/>
<text x="1912.0" y="372.4" font-size="19.4" font-weight="400" fill="#5B6478" text-anchor="start">Exposed to the full RDF alarm stream</text>
<rect x="1896.0" y="404.4" width="488.0" height="286.6" rx="10" fill="#FFFFFF" stroke="#B9C8DE" stroke-width="1.8"/>
<text x="1912.0" y="438.4" font-size="21.2" font-weight="700" fill="#1F2A44" text-anchor="start">Patient-centered alarm management</text>
<g transform="translate(1942,551.7194999999999) scale(1.0)" fill="none" stroke="#1F2A44" stroke-width="3.2"><circle cx="0" cy="-14" r="10"/><path d="M-20 24 C-20 6 -10 0 0 0 C10 0 20 6 20 24"/><path d="M-6 10 h12 M0 4 v12" stroke-width="2.6"/></g>
<path d="M-10 7 L-10 -1 C-10 -9 -5 -13 0 -13 C5 -13 10 -9 10 -1 L10 7 L13 10 L-13 10 Z M-3.5 13 A3.5 3.5 0 0 0 3.5 13 Z" transform="translate(2000.0,551.7) scale(1.2)" fill="#3264AE" opacity="1.0"/>
<path d="M-10 7 L-10 -1 C-10 -9 -5 -13 0 -13 C5 -13 10 -9 10 -1 L10 7 L13 10 L-13 10 Z M-3.5 13 A3.5 3.5 0 0 0 3.5 13 Z" transform="translate(2040.0,551.7) scale(1.05)" fill="#3264AE" opacity="0.45"/>
<path d="M-10 7 L-10 -1 C-10 -9 -5 -13 0 -13 C5 -13 10 -9 10 -1 L10 7 L13 10 L-13 10 Z M-3.5 13 A3.5 3.5 0 0 0 3.5 13 Z" transform="translate(2078.0,551.7) scale(1.05)" fill="#3264AE" opacity="0.25"/>
<text x="1912.0" y="649.3" font-size="19.4" font-weight="400" fill="#5B6478" text-anchor="start">Exposed to fewer, contextualized alarms</text>
<text x="1912.0" y="671.0" font-size="19.4" font-weight="400" fill="#5B6478" text-anchor="start">and interpretations</text>
<path d="M384.0 460.0 L466.0 460.0" fill="none" stroke="#5B6478" stroke-width="2.6" stroke-linejoin="round" marker-end="url(#arr-main)"/>
<text x="425.0" y="428.0" font-size="19.4" font-weight="400" fill="#5B6478" text-anchor="middle">RDF</text>
<text x="425.0" y="448.0" font-size="19.4" font-weight="400" fill="#5B6478" text-anchor="middle">stream</text>
<path d="M894.0 480.0 L1056.0 480.0" fill="none" stroke="#5B6478" stroke-width="2.6" stroke-linejoin="round" marker-end="url(#arr-main)"/>
<text x="975.0" y="382.0" font-size="19.4" font-weight="400" fill="#5B6478" text-anchor="middle">Semantic</text>
<text x="975.0" y="403.0" font-size="19.4" font-weight="400" fill="#5B6478" text-anchor="middle">enrichment</text>
<text x="975.0" y="424.0" font-size="19.4" font-weight="400" fill="#5B6478" text-anchor="middle">(10 → 23</text>
<text x="975.0" y="445.0" font-size="19.4" font-weight="400" fill="#5B6478" text-anchor="middle">triples/alarm)</text>
<path d="M1424.0 480.0 L1476.0 480.0" fill="none" stroke="#5B6478" stroke-width="2.6" stroke-linejoin="round" marker-end="url(#arr-main)"/>
<path d="M1814.0 480.0 L1876.0 480.0" fill="none" stroke="#5B6478" stroke-width="2.6" stroke-linejoin="round" marker-end="url(#arr-main)"/>
<path d="M1240.0 268.0 L1240.0 219.0" fill="none" stroke="#5B6478" stroke-width="2.6" stroke-linejoin="round" marker-end="url(#arr-main)"/>
<text x="1230.0" y="236.0" font-size="19.4" font-weight="400" fill="#5B6478" text-anchor="end">reads</text>
<text x="1230.0" y="256.0" font-size="19.4" font-weight="400" fill="#5B6478" text-anchor="end">(accumulated per patient)</text>
<path d="M1645.0 268.0 L1645.0 219.0" fill="none" stroke="#5B6478" stroke-width="2.6" stroke-linejoin="round" marker-end="url(#arr-main)"/>
<text x="1655.0" y="250.0" font-size="19.4" font-weight="400" fill="#5B6478" text-anchor="start">updates</text>
<path d="M1240.0 707 V760" stroke="#5B6478" stroke-width="2.6" fill="none"/>
<text x="1254.0" y="742.0" font-size="19.4" font-weight="400" fill="#5B6478" text-anchor="start">Classified reasoning outcomes</text>
<path d="M390.0 760 H2010.0" stroke="#5B6478" stroke-width="2.6" fill="none"/>
<path d="M390.0 760.0 L390.0 788.0" fill="none" stroke="#5B6478" stroke-width="2.6" stroke-linejoin="round" marker-end="url(#arr-main)"/>
<path d="M1200.0 760.0 L1200.0 788.0" fill="none" stroke="#5B6478" stroke-width="2.6" stroke-linejoin="round" marker-end="url(#arr-main)"/>
<path d="M2010.0 760.0 L2010.0 788.0" fill="none" stroke="#5B6478" stroke-width="2.6" stroke-linejoin="round" marker-end="url(#arr-main)"/>
<rect x="0.0" y="792.0" width="780.0" height="673.2" rx="16" fill="#FDF1F0" stroke="#EFC3BF" stroke-width="2.4"/>
<circle cx="32" cy="826" r="19" fill="#C8413A"/>
<text x="32.0" y="834.0" font-size="23" font-weight="700" fill="#FFFFFF" text-anchor="middle">A</text>
<text x="60.0" y="835.0" font-size="26.5" font-weight="700" fill="#1F2A44" text-anchor="start">Likely false positives</text>
<text x="60.0" y="862.0" font-size="19.4" font-weight="400" fill="#5B6478" text-anchor="start">Technical or physiological conditions invalidate alarm</text>
<g transform="translate(40.0,888) scale(1.2069)"><text x="0.0" y="18.0" font-size="19.4" font-weight="700" fill="#C8413A" text-anchor="start" letter-spacing="1.2">ALARMS + CONTEXT</text>
<text x="0.0" y="50.5" font-size="21.2" font-weight="400" fill="#1F2A44" text-anchor="start">ECG leads off</text>
<rect x="172.0" y="32.0" width="406.0" height="26.0" rx="4" fill="#E7EBF2" stroke="none" stroke-width="2"/>
<rect x="187.6" y="34.0" width="374.8" height="22.0" rx="3" fill="#D9962B" stroke="none" stroke-width="2"/>
<text x="195.6" y="50.0" font-size="19.4" font-weight="400" fill="#FFFFFF" text-anchor="start">technical</text>
<text x="0.0" y="86.5" font-size="21.2" font-weight="400" fill="#1F2A44" text-anchor="start">Asystole</text>
<rect x="172.0" y="68.0" width="406.0" height="26.0" rx="4" fill="#E7EBF2" stroke="none" stroke-width="2"/>
<rect x="281.3" y="70.0" width="62.5" height="22.0" rx="3" fill="#FBE4E2" stroke="#C8413A" stroke-width="2"/>
<rect x="281.3" y="70.0" width="62.5" height="22.0" rx="3" fill="url(#hatch-A)" stroke="none" stroke-width="2"/>
<text x="351.8" y="86.5" font-size="19.4" font-weight="700" fill="#C8413A" text-anchor="start">flagged</text>
<line x1="187.6" y1="100.0" x2="187.6" y2="106.0" stroke="#9AA3B5" stroke-width="1.6"/>
<text x="187.6" y="122.0" font-size="19.4" font-weight="400" fill="#5B6478" text-anchor="middle">0</text>
<line x1="281.3" y1="100.0" x2="281.3" y2="106.0" stroke="#9AA3B5" stroke-width="1.6"/>
<text x="281.3" y="122.0" font-size="19.4" font-weight="400" fill="#5B6478" text-anchor="middle">30</text>
<line x1="375.0" y1="100.0" x2="375.0" y2="106.0" stroke="#9AA3B5" stroke-width="1.6"/>
<text x="375.0" y="122.0" font-size="19.4" font-weight="400" fill="#5B6478" text-anchor="middle">60</text>
<line x1="468.7" y1="100.0" x2="468.7" y2="106.0" stroke="#9AA3B5" stroke-width="1.6"/>
<text x="468.7" y="122.0" font-size="19.4" font-weight="400" fill="#5B6478" text-anchor="middle">90</text>
<line x1="562.4" y1="100.0" x2="562.4" y2="106.0" stroke="#9AA3B5" stroke-width="1.6"/>
<text x="568.4" y="122.0" font-size="19.4" font-weight="400" fill="#5B6478" text-anchor="end">120 s</text>
<path d="M280 138 L290 146 L300 138" fill="none" stroke="#9AA3B5" stroke-width="2.4" stroke-linecap="round" stroke-linejoin="round"/>
<text x="0.0" y="174.0" font-size="19.4" font-weight="700" fill="#C8413A" text-anchor="start" letter-spacing="1.2">INFERRED INTERPRETATION</text>
<line x1="136.0" y1="204.0" x2="578.0" y2="204.0" stroke="#5B6478" stroke-width="1.6"/>
<line x1="136.0" y1="204.0" x2="136.0" y2="212.0" stroke="#5B6478" stroke-width="1.6"/>
<line x1="578.0" y1="204.0" x2="578.0" y2="212.0" stroke="#5B6478" stroke-width="1.6"/>
<text x="357.0" y="197.0" font-size="19.4" font-weight="400" fill="#5B6478" text-anchor="middle">its own sensing pathway</text>
<rect x="0.0" y="216.0" width="110.0" height="36.0" rx="18.0" fill="#1F2A44" stroke="none" stroke-width="2"/>
<text x="55.0" y="241.5" font-size="21.2" font-weight="500" fill="#FFFFFF" text-anchor="middle">Asystole</text>
<line x1="110.0" y1="234.0" x2="136.0" y2="234.0" stroke="#9AA3B5" stroke-width="2.2"/>
<rect x="136.0" y="216.0" width="124.0" height="36.0" rx="7" fill="#FFFFFF" stroke="#9AA3B5" stroke-width="2"/>
<text x="198.0" y="241.5" font-size="21.2" font-weight="400" fill="#1F2A44" text-anchor="middle">HR: absent</text>
<line x1="260.0" y1="234.0" x2="282.0" y2="234.0" stroke="#9AA3B5" stroke-width="2.2"/>
<rect x="282.0" y="216.0" width="128.0" height="36.0" rx="7" fill="#FFFFFF" stroke="#9AA3B5" stroke-width="2"/>
<text x="346.0" y="241.5" font-size="21.2" font-weight="400" fill="#1F2A44" text-anchor="middle">ECG signal</text>
<line x1="410.0" y1="234.0" x2="432.0" y2="234.0" stroke="#9AA3B5" stroke-width="2.2"/>
<rect x="432.0" y="216.0" width="146.0" height="36.0" rx="7" fill="#FFFFFF" stroke="#C8413A" stroke-width="2"/>
<text x="505.0" y="241.5" font-size="21.2" font-weight="700" fill="#C8413A" text-anchor="middle">electrodes</text>
<rect x="432.0" y="290.0" width="146.0" height="36.0" rx="18.0" fill="#D9962B" stroke="none" stroke-width="2"/>
<text x="505.0" y="315.5" font-size="21.2" font-weight="500" fill="#FFFFFF" text-anchor="middle">Leads off</text>
<line x1="505.0" y1="290.0" x2="505.0" y2="256.0" stroke="#9AA3B5" stroke-width="2.2" marker-end="url(#arr-A)"/>
<text x="497.0" y="279.0" font-size="19.4" font-weight="600" fill="#C8413A" text-anchor="end">reports: disconnected</text>
<text x="0.0" y="312.0" font-size="21.2" font-weight="700" fill="#1F2A44" text-anchor="start">Signal behind the asystole</text>
<text x="0.0" y="336.0" font-size="21.2" font-weight="700" fill="#1F2A44" text-anchor="start">is not being acquired</text>
<path d="M280 350 L290 358 L300 350" fill="none" stroke="#9AA3B5" stroke-width="2.4" stroke-linecap="round" stroke-linejoin="round"/>
<rect x="0.0" y="384.0" width="580.0" height="72.0" rx="12" fill="#FBE4E2" stroke="#C8413A" stroke-width="2"/>
<circle cx="42" cy="420" r="25" fill="#C8413A"/>
<g transform="translate(42,421)"><path d="M-10 7 L-10 -1 C-10 -9 -5 -13 0 -13 C5 -13 10 -9 10 -1 L10 7 L13 10 L-13 10 Z M-3.5 13 A3.5 3.5 0 0 0 3.5 13 Z" fill="#FFFFFF"/><line x1="-15" y1="-15" x2="15" y2="15" stroke="#C8413A" stroke-width="7"/><line x1="-15" y1="-15" x2="15" y2="15" stroke="#FFFFFF" stroke-width="3"/></g>
<text x="84.0" y="415.0" font-size="24" font-weight="700" fill="#1F2A44" text-anchor="start">Likely false positive</text>
<text x="84.0" y="441.0" font-size="20.0" font-weight="400" fill="#5B6478" text-anchor="start">flag and suppress the asystole</text>
<text x="568.0" y="415.0" font-size="19.4" font-weight="700" fill="#C8413A" text-anchor="end">CAT1a</text></g>
<rect x="810.0" y="792.0" width="780.0" height="673.2" rx="16" fill="#EFF4FB" stroke="#BFD0EA" stroke-width="2.4"/>
<circle cx="842" cy="826" r="19" fill="#3264AE"/>
<text x="842.0" y="834.0" font-size="23" font-weight="700" fill="#FFFFFF" text-anchor="middle">B</text>
<text x="870.0" y="835.0" font-size="26.5" font-weight="700" fill="#1F2A44" text-anchor="start">Likely redundant information</text>
<text x="870.0" y="862.0" font-size="19.4" font-weight="400" fill="#5B6478" text-anchor="start">Multiple alarms convey the same underlying meaning</text>
<g transform="translate(850.0,888) scale(1.2069)"><text x="0.0" y="18.0" font-size="19.4" font-weight="700" fill="#3264AE" text-anchor="start" letter-spacing="1.2">ALARMS + CONTEXT</text>
<text x="0.0" y="50.5" font-size="21.2" font-weight="400" fill="#1F2A44" text-anchor="start">HR extr. low</text>
<rect x="172.0" y="32.0" width="406.0" height="26.0" rx="4" fill="#E7EBF2" stroke="none" stroke-width="2"/>
<rect x="187.6" y="34.0" width="374.8" height="22.0" rx="3" fill="#1F2A44" stroke="none" stroke-width="2"/>
<text x="195.6" y="50.0" font-size="19.4" font-weight="400" fill="#FFFFFF" text-anchor="start">high priority</text>
<text x="0.0" y="86.5" font-size="21.2" font-weight="400" fill="#1F2A44" text-anchor="start">HR low</text>
<rect x="172.0" y="68.0" width="406.0" height="26.0" rx="4" fill="#E7EBF2" stroke="none" stroke-width="2"/>
<rect x="281.3" y="70.0" width="93.7" height="22.0" rx="3" fill="#E2EBF8" stroke="#3264AE" stroke-width="2"/>
<rect x="281.3" y="70.0" width="93.7" height="22.0" rx="3" fill="url(#hatch-B)" stroke="none" stroke-width="2"/>
<text x="383.0" y="86.5" font-size="19.4" font-weight="700" fill="#3264AE" text-anchor="start">medium · silenced</text>
<line x1="187.6" y1="100.0" x2="187.6" y2="106.0" stroke="#9AA3B5" stroke-width="1.6"/>
<text x="187.6" y="122.0" font-size="19.4" font-weight="400" fill="#5B6478" text-anchor="middle">0</text>
<line x1="281.3" y1="100.0" x2="281.3" y2="106.0" stroke="#9AA3B5" stroke-width="1.6"/>
<text x="281.3" y="122.0" font-size="19.4" font-weight="400" fill="#5B6478" text-anchor="middle">30</text>
<line x1="375.0" y1="100.0" x2="375.0" y2="106.0" stroke="#9AA3B5" stroke-width="1.6"/>
<text x="375.0" y="122.0" font-size="19.4" font-weight="400" fill="#5B6478" text-anchor="middle">60</text>
<line x1="468.7" y1="100.0" x2="468.7" y2="106.0" stroke="#9AA3B5" stroke-width="1.6"/>
<text x="468.7" y="122.0" font-size="19.4" font-weight="400" fill="#5B6478" text-anchor="middle">90</text>
<line x1="562.4" y1="100.0" x2="562.4" y2="106.0" stroke="#9AA3B5" stroke-width="1.6"/>
<text x="568.4" y="122.0" font-size="19.4" font-weight="400" fill="#5B6478" text-anchor="end">120 s</text>
<path d="M280 138 L290 146 L300 138" fill="none" stroke="#9AA3B5" stroke-width="2.4" stroke-linecap="round" stroke-linejoin="round"/>
<text x="0.0" y="174.0" font-size="19.4" font-weight="700" fill="#3264AE" text-anchor="start" letter-spacing="1.2">INFERRED INTERPRETATION</text>
<rect x="0.0" y="192.0" width="150.0" height="36.0" rx="18.0" fill="#1F2A44" stroke="none" stroke-width="2"/>
<text x="75.0" y="217.5" font-size="21.2" font-weight="500" fill="#FFFFFF" text-anchor="middle">HR extr. low</text>
<rect x="0.0" y="262.0" width="150.0" height="36.0" rx="18.0" fill="#1F2A44" stroke="none" stroke-width="2"/>
<text x="75.0" y="287.5" font-size="21.2" font-weight="500" fill="#FFFFFF" text-anchor="middle">HR low</text>
<line x1="150.0" y1="210.0" x2="250.0" y2="243.0" stroke="#9AA3B5" stroke-width="2.2" marker-end="url(#arr-B)"/>
<line x1="150.0" y1="280.0" x2="250.0" y2="255.0" stroke="#9AA3B5" stroke-width="2.2" marker-end="url(#arr-B)"/>
<text x="196.0" y="214.0" font-size="21.2" font-weight="700" fill="#1F2A44" text-anchor="middle">↓↓</text>
<text x="196.0" y="292.0" font-size="21.2" font-weight="700" fill="#1F2A44" text-anchor="middle">↓</text>
<rect x="254.0" y="231.0" width="118.0" height="36.0" rx="7" fill="#FFFFFF" stroke="#9AA3B5" stroke-width="2"/>
<text x="313.0" y="256.5" font-size="21.2" font-weight="400" fill="#1F2A44" text-anchor="middle">heart rate</text>
<line x1="372.0" y1="249.0" x2="404.0" y2="249.0" stroke="#9AA3B5" stroke-width="2.2" marker-end="url(#arr-B)"/>
<text x="491.0" y="212.0" font-size="19.4" font-weight="400" fill="#5B6478" text-anchor="middle">process</text>
<rect x="406.0" y="219.0" width="172.0" height="60.0" rx="7" fill="#FFFFFF" stroke="#3264AE" stroke-width="2"/>
<text x="492.0" y="244.0" font-size="21.2" font-weight="700" fill="#3264AE" text-anchor="middle">cardiac</text>
<text x="492.0" y="269.0" font-size="21.2" font-weight="700" fill="#3264AE" text-anchor="middle">contraction</text>
<path d="M2 312 l5 5 l10 -11" fill="none" stroke="#3264AE" stroke-width="2.6" stroke-linecap="round" stroke-linejoin="round"/>
<text x="24.0" y="318.0" font-size="20.0" font-weight="400" fill="#1F2A44" text-anchor="start">same process</text>
<path d="M302 312 l5 5 l10 -11" fill="none" stroke="#3264AE" stroke-width="2.6" stroke-linecap="round" stroke-linejoin="round"/>
<text x="324.0" y="318.0" font-size="20.0" font-weight="400" fill="#1F2A44" text-anchor="start">same direction</text>
<path d="M2 336 l5 5 l10 -11" fill="none" stroke="#3264AE" stroke-width="2.6" stroke-linecap="round" stroke-linejoin="round"/>
<text x="24.0" y="342.0" font-size="20.0" font-weight="400" fill="#1F2A44" text-anchor="start">not more severe</text>
<path d="M302 336 l5 5 l10 -11" fill="none" stroke="#3264AE" stroke-width="2.6" stroke-linecap="round" stroke-linejoin="round"/>
<text x="324.0" y="342.0" font-size="20.0" font-weight="400" fill="#1F2A44" text-anchor="start">priority ≤ active</text>
<path d="M280 356 L290 364 L300 356" fill="none" stroke="#9AA3B5" stroke-width="2.4" stroke-linecap="round" stroke-linejoin="round"/>
<rect x="0.0" y="384.0" width="580.0" height="72.0" rx="12" fill="#E2EBF8" stroke="#3264AE" stroke-width="2"/>
<circle cx="42" cy="420" r="25" fill="#3264AE"/>
<g transform="translate(42,421)"><path d="M-10 7 L-10 -1 C-10 -9 -5 -13 0 -13 C5 -13 10 -9 10 -1 L10 7 L13 10 L-13 10 Z M-3.5 13 A3.5 3.5 0 0 0 3.5 13 Z" transform="translate(6,-5) scale(.8)" fill="none" stroke="#FFFFFF" stroke-width="2.4" opacity=".75"/><path d="M-10 7 L-10 -1 C-10 -9 -5 -13 0 -13 C5 -13 10 -9 10 -1 L10 7 L13 10 L-13 10 Z M-3.5 13 A3.5 3.5 0 0 0 3.5 13 Z" transform="translate(-3,2) scale(.9)" fill="#FFFFFF"/></g>
<text x="84.0" y="415.0" font-size="24" font-weight="700" fill="#1F2A44" text-anchor="start">Redundant: consolidate</text>
<text x="84.0" y="441.0" font-size="20.0" font-weight="400" fill="#5B6478" text-anchor="start">silence HR low while HR extr. low lasts</text>
<text x="568.0" y="415.0" font-size="19.4" font-weight="700" fill="#3264AE" text-anchor="end">CAT2a</text></g>
<rect x="1620.0" y="792.0" width="780.0" height="673.2" rx="16" fill="#F5F1FB" stroke="#D5C6EC" stroke-width="2.4"/>
<circle cx="1652" cy="826" r="19" fill="#7652AE"/>
<text x="1652.0" y="834.0" font-size="23" font-weight="700" fill="#FFFFFF" text-anchor="middle">C</text>
<text x="1680.0" y="835.0" font-size="26.5" font-weight="700" fill="#1F2A44" text-anchor="start">Emergent combined meaning</text>
<text x="1680.0" y="862.0" font-size="19.4" font-weight="400" fill="#5B6478" text-anchor="start">Combination of alarms reveals higher-level clinical meaning</text>
<g transform="translate(1660.0,888) scale(1.2069)"><text x="0.0" y="18.0" font-size="19.4" font-weight="700" fill="#7652AE" text-anchor="start" letter-spacing="1.2">ALARMS + CONTEXT</text>
<rect x="314.1" y="27.0" width="121.8" height="72.0" rx="4" fill="#ECE4F7" stroke="#7652AE" stroke-width="1.6" stroke-dasharray="5 4"/>
<text x="0.0" y="50.5" font-size="21.2" font-weight="400" fill="#1F2A44" text-anchor="start">Asystole</text>
<rect x="172.0" y="32.0" width="406.0" height="26.0" rx="4" fill="#E7EBF2" stroke="none" stroke-width="2"/>
<rect x="192.3" y="34.0" width="243.6" height="22.0" rx="3" fill="#1F2A44" stroke="none" stroke-width="2"/>
<text x="0.0" y="86.5" font-size="21.2" font-weight="400" fill="#1F2A44" text-anchor="start">Apnoea</text>
<rect x="172.0" y="68.0" width="406.0" height="26.0" rx="4" fill="#E7EBF2" stroke="none" stroke-width="2"/>
<rect x="314.1" y="70.0" width="243.6" height="22.0" rx="3" fill="#1F2A44" stroke="none" stroke-width="2"/>
<text x="443.9" y="20.0" font-size="19.4" font-weight="700" fill="#7652AE" text-anchor="start">both present</text>
<line x1="192.3" y1="100.0" x2="192.3" y2="106.0" stroke="#9AA3B5" stroke-width="1.6"/>
<text x="192.3" y="122.0" font-size="19.4" font-weight="400" fill="#5B6478" text-anchor="middle">0</text>
<line x1="314.1" y1="100.0" x2="314.1" y2="106.0" stroke="#9AA3B5" stroke-width="1.6"/>
<text x="314.1" y="122.0" font-size="19.4" font-weight="400" fill="#5B6478" text-anchor="middle">30</text>
<line x1="435.9" y1="100.0" x2="435.9" y2="106.0" stroke="#9AA3B5" stroke-width="1.6"/>
<text x="435.9" y="122.0" font-size="19.4" font-weight="400" fill="#5B6478" text-anchor="middle">60</text>
<line x1="557.7" y1="100.0" x2="557.7" y2="106.0" stroke="#9AA3B5" stroke-width="1.6"/>
<text x="563.7" y="122.0" font-size="19.4" font-weight="400" fill="#5B6478" text-anchor="end">90 s</text>
<path d="M280 138 L290 146 L300 138" fill="none" stroke="#9AA3B5" stroke-width="2.4" stroke-linecap="round" stroke-linejoin="round"/>
<text x="0.0" y="174.0" font-size="19.4" font-weight="700" fill="#7652AE" text-anchor="start" letter-spacing="1.2">INFERRED INTERPRETATION</text>
<rect x="0.0" y="194.0" width="100.0" height="36.0" rx="18.0" fill="#1F2A44" stroke="none" stroke-width="2"/>
<text x="50.0" y="219.5" font-size="21.2" font-weight="500" fill="#FFFFFF" text-anchor="middle">Asystole</text>
<rect x="0.0" y="272.0" width="100.0" height="36.0" rx="18.0" fill="#1F2A44" stroke="none" stroke-width="2"/>
<text x="50.0" y="297.5" font-size="21.2" font-weight="500" fill="#FFFFFF" text-anchor="middle">Apnoea</text>
<rect x="126.0" y="194.0" width="208.0" height="36.0" rx="7" fill="#ECE4F7" stroke="#7652AE" stroke-width="2"/>
<text x="230.0" y="219.5" font-size="21.2" font-weight="400" fill="#1F2A44" text-anchor="middle">Cardiac arrest</text>
<rect x="126.0" y="272.0" width="208.0" height="36.0" rx="7" fill="#ECE4F7" stroke="#7652AE" stroke-width="2"/>
<text x="230.0" y="297.5" font-size="21.2" font-weight="400" fill="#1F2A44" text-anchor="middle">Respiratory arrest</text>
<line x1="126.0" y1="212.0" x2="103.0" y2="212.0" stroke="#9AA3B5" stroke-width="2.2" marker-end="url(#arr-C)"/>
<line x1="126.0" y1="290.0" x2="103.0" y2="290.0" stroke="#9AA3B5" stroke-width="2.2" marker-end="url(#arr-C)"/>
<rect x="360.0" y="217.0" width="218.0" height="68.0" rx="7" fill="#7652AE" stroke="#7652AE" stroke-width="2"/>
<text x="469.0" y="246.0" font-size="21.2" font-weight="700" fill="#FFFFFF" text-anchor="middle">Cardiorespiratory</text>
<text x="469.0" y="271.0" font-size="21.2" font-weight="700" fill="#FFFFFF" text-anchor="middle">arrest</text>
<line x1="360.0" y1="240.0" x2="337.0" y2="214.0" stroke="#9AA3B5" stroke-width="2.2" marker-end="url(#arr-C)"/>
<line x1="360.0" y1="262.0" x2="337.0" y2="288.0" stroke="#9AA3B5" stroke-width="2.2" marker-end="url(#arr-C)"/>
<text x="578.0" y="334.0" font-size="19.4" font-weight="400" fill="#5B6478" text-anchor="end">arrows: evidenced by</text>
<path d="M280 350 L290 358 L300 350" fill="none" stroke="#9AA3B5" stroke-width="2.4" stroke-linecap="round" stroke-linejoin="round"/>
<rect x="0.0" y="384.0" width="580.0" height="72.0" rx="12" fill="#ECE4F7" stroke="#7652AE" stroke-width="2"/>
<circle cx="42" cy="420" r="25" fill="#7652AE"/>
<g transform="translate(42,421)"><path d="M-10 7 L-10 -1 C-10 -9 -5 -13 0 -13 C5 -13 10 -9 10 -1 L10 7 L13 10 L-13 10 Z M-3.5 13 A3.5 3.5 0 0 0 3.5 13 Z" fill="#FFFFFF"/><circle cx="11" cy="-11" r="8" fill="#FFFFFF" stroke="#7652AE" stroke-width="2"/><text x="11" y="-6" font-size="14" font-weight="700" fill="#7652AE" text-anchor="middle">!</text></g>
<text x="84.0" y="415.0" font-size="24" font-weight="700" fill="#1F2A44" text-anchor="start">Emergent meaning: notify</text>
<text x="84.0" y="441.0" font-size="20.0" font-weight="400" fill="#5B6478" text-anchor="start">one alarm: cardiorespiratory arrest</text>
<text x="568.0" y="415.0" font-size="19.4" font-weight="700" fill="#7652AE" text-anchor="end">CAT3a</text></g>
<text x="0" y="1521.2" font-size="24" fill="#1F2A44"><tspan font-weight="700">Fig. 1 | MDA proof-of-concept: contextual reasoning over alarm-derived situational knowledge.</tspan> Per-patient alarms are ingested, enriched using the MDA semantic framework, and continuously</text>
<text x="0" y="1554.2" font-size="24" fill="#1F2A44">reasoned over with clinical context. Reasoning outputs are classified into three categories—likely false positives, likely redundant information, and emergent combined meaning—to inform</text>
<text x="0" y="1587.2" font-size="24" fill="#1F2A44">patient-centered alarm management. Worked examples (A–C) are regression cases of the proof-of-concept rules. In device-centered alarm management, clinicians are exposed to the full RDF alarm</text>
<text x="0" y="1620.2" font-size="24" fill="#1F2A44">stream, whereas in patient-centered alarm management they are exposed to fewer, contextualized alarms and interpretations.</text>
</g>
</svg>
